{"title":"Nanban 2012 DVDRip x264 AAC ESubs - ViZNU [P2PDL]","uid":8014116,"size":746939705,"categoryP":"video","categoryS":"movies","magnet":"?xt=urn:btih:7c85834d5373c44865aa89ddb7a0a9ec457ab8b6&amp;dn=Nanban+2012+DVDRip+x264+AAC+ESubs+-+ViZNU+%5BP2PDL%5D&amp;tr=udp%3A%2F%2Ftracker.openbittorrent.com%3A80&amp;tr=udp%3A%2F%2Fopen.demonii.com%3A1337&amp;tr=udp%3A%2F%2Ftracker.coppersurfer.tk%3A6969&amp;tr=udp%3A%2F%2Fexodus.desync.com%3A6969","seeders":1,"leechers":0,"uploader":"ValidusVyto","files":-1,"time":1358069697,"description":"_________________________  Visit us at _________________________\n  &lt;a href=&quot;\nhttp://p2pdl.com&quot; rel=&quot;nofollow&quot; target=&quot;_NEW&quot;&gt;\nhttp://p2pdl.com&lt;/a&gt;  ____________________________ &lt;a href=&quot; http://p2pdl.com&quot; rel=&quot;nofollow&quot; target=&quot;_NEW&quot;&gt; http://p2pdl.com&lt;/a&gt;\n\n\nNanban 2012 DVDRip x264 AAC ESubs - ViZNU\n\n\t\t\t\t\nGenre: Comedy | Drama | Romance  \nThree friends and the successes achieved in their afterlife, due to one of their extraordinary friend. \nDirector: S. Shankar\nStars:  Vijay, Jiiva and Srikanth.\nRated: N/a &lt;a href=&quot;\nhttp://www.imdb.com/title/tt2180477/&quot; rel=&quot;nofollow&quot; target=&quot;_NEW&quot;&gt;\nhttp://www.imdb.com/title/tt2180477/&lt;/a&gt; &lt;a href=&quot;\nhttp://cinemahouse.in/movie/233/Nanban&quot; rel=&quot;nofollow&quot; target=&quot;_NEW&quot;&gt;\nhttp://cinemahouse.in/movie/233/Nanban&lt;/a&gt;\nEncoder Notes: Ripped straight from DVD, hence video has transparent watermarks. Take it or leave it!\n\nGeneral\nMovie name                     : Nanban 2012\nFormat                         : MPEG-4\nFormat profile                 : Base Media\nFile size                      : 699 MiB\nDuration                       : 3h 0mn\nOverall bit rate mode          : Variable\nOverall bit rate               : 540 Kbps\nSource                         : NTSC DVDR\n\n\nVideo\nID                             : 1\nFormat                         : AVC\nFormat/Info                    : Advanced Video Codec\nDuration                       : 3h 0mn\nBit rate                       : 497 Kbps\nWidth                          : 608 pixels\nHeight                         : 256 pixels\nDisplay aspect ratio           : 2.40:1\nFrame rate mode                : Constant\nFrame rate                     : 29.970 fps\nStream size                    : 643 MiB (92%)\nWriting library                : x264 core 129 r2230\n\nAudio\nID                             : 2\nFormat                         : AAC\nFormat/Info                    : Advanced Audio Codec\nDuration                       : 3h 0mn\nBit rate mode                  : Variable\nBit rate                       : 39.9 Kbps\nMaximum bit rate               : 49.6 Kbps\nChannel(s)                     : 2 channels / 1 channel / 1 channel\nChannel positions              : Front: L R / Front: C / Front: C\nSampling rate                  : 48.0 KHz / 48.0 KHz / 24.0 KHz\nStream size                    : 51.7 MiB (7%)\nLanguage                       : Tamil\n\nSubtitle                       : Yes(English)\n\nScreens:\n &lt;a href=&quot;\nhttp://www.shotpix.com/images/94000226108480017492.png&quot; rel=&quot;nofollow&quot; target=&quot;_NEW&quot;&gt;\nhttp://www.shotpix.com/images/94000226108480017492.png&lt;/a&gt; &lt;a href=&quot;\nhttp://www.shotpix.com/images/74295433338422772146.png&quot; rel=&quot;nofollow&quot; target=&quot;_NEW&quot;&gt;\nhttp://www.shotpix.com/images/74295433338422772146.png&lt;/a&gt; &lt;a href=&quot;\nhttp://www.shotpix.com/images/50864703944211364092.png&quot; rel=&quot;nofollow&quot; target=&quot;_NEW&quot;&gt;\nhttp://www.shotpix.com/images/50864703944211364092.png&lt;/a&gt; &lt;a href=&quot;\nhttp://www.shotpix.com/images/43487013081238216491.png&quot; rel=&quot;nofollow&quot; target=&quot;_NEW&quot;&gt;\nhttp://www.shotpix.com/images/43487013081238216491.png&lt;/a&gt; &lt;a href=&quot;\nhttp://www.shotpix.com/images/16203226411001370396.png&quot; rel=&quot;nofollow&quot; target=&quot;_NEW&quot;&gt;\nhttp://www.shotpix.com/images/16203226411001370396.png&lt;/a&gt; &lt;a href=&quot;\nhttp://www.shotpix.com/images/22336383109984718503.jpg&quot; rel=&quot;nofollow&quot; target=&quot;_NEW&quot;&gt;\nhttp://www.shotpix.com/images/22336383109984718503.jpg&lt;/a&gt;\n\n\n----------------------------------------------------------------------------------------------------\n\n\nRecommend to you to use latest version of VLC player. Install K-Lite Codec Pack or shark007 codecs\nin case of any kind of problem in playback (For non-VLC Media Player users). Alternatively, install\nCore AVC codecs, the fastest decoder that there is coupled with Community Center Codec Pack and play\non Windows Media Player Classic. Check sample to be sure.\nEnjoy!\n\nGreets to: Vitamin_X, a2zRG, srkfan, MgB, Stumpie1971, Sheychi, StyLishSaLH and, Masta staff members at\nExtraTorrent, TPB,KAT, 1337x, PublicHD, Ahashare, BTScene, SilverTorrent, LimeTorrents, TorrentMafia,\nP2PDL, and all others.\n\nEncoder Notes: Looking For Early Access To Anything You Can Provide DVDScr, R5, DVDR, BluRay, Direct\nAudio, Early Music Releases, Seedboxes, Dedicated Servers anything u can provide, Advance / Promo CDs/\nDVDs. If You Got anything to offer contact me at &quot;&lt;a class=&quot;__cf_email__&quot; href=&quot;/cdn-cgi/l/email-protection&quot; data-cfemail=&quot;0171736641697472692f626e6c&quot;&gt;[email&amp;#160;protected]&lt;/a&gt;&lt;script cf-hash='f9e31' type=&quot;text/javascript&quot;&gt;\n/* &lt;![CDATA[ */!function(){try{var t=&quot;currentScript&quot;in document?document.currentScript:function(){for(var t=document.getElementsByTagName(&quot;script&quot;),e=t.length;e--;)if(t[e].getAttribute(&quot;cf-hash&quot;))return t[e]}();if(t&amp;&amp;t.previousSibling){var e,r,n,i,c=t.previousSibling,a=c.getAttribute(&quot;data-cfemail&quot;);if(a){for(e=&quot;&quot;,r=parseInt(a.substr(0,2),16),n=2;a.length-n;n+=2)i=parseInt(a.substr(n,2),16)^r,e+=String.fromCharCode(i);e=document.createTextNode(e),c.parentNode.replaceChild(e,c)}}}catch(u){}}();/* ]]&gt; */&lt;/script&gt;&quot;.\n\nFacebook Fan Page: www . facebook . com / p2pdl","torrent":{"xt":"urn:btih:7c85834d5373c44865aa89ddb7a0a9ec457ab8b6","amp;dn":"Nanban+2012+DVDRip+x264+AAC+ESubs+-+ViZNU+%5BP2PDL%5D","amp;tr":["udp%3A%2F%2Ftracker.openbittorrent.com%3A80","udp%3A%2F%2Fopen.demonii.com%3A1337","udp%3A%2F%2Ftracker.coppersurfer.tk%3A6969","udp%3A%2F%2Fexodus.desync.com%3A6969"],"infoHash":"7c85834d5373c44865aa89ddb7a0a9ec457ab8b6","infoHashBuffer":{"type":"Buffer","data":[124,133,131,77,83,115,196,72,101,170,137,221,183,160,169,236,69,122,184,182]},"announce":[],"urlList":[]}}